<?xml version="1.0" standalone="no"?>
<!DOCTYPE svg PUBLIC "-//W3C//DTD SVG 20010904//EN"
 "http://www.w3.org/TR/2001/REC-SVG-20010904/DTD/svg10.dtd">
<svg version="1.0" xmlns="http://www.w3.org/2000/svg"
 width="319.000000pt" height="319.000000pt" viewBox="0 0 319.000000 319.000000"
 preserveAspectRatio="xMidYMid meet">
<metadata>
Created by potrace 1.11, written by Peter Selinger 2001-2013
</metadata>
<g transform="translate(0.000000,319.000000) scale(0.100000,-0.100000)"
fill="#000000" stroke="none">
<path d="M1249 2485 c-128 -40 -209 -149 -209 -281 0 -91 15 -93 196 -28 123
45 135 47 259 52 72 2 136 9 143 14 54 44 -55 205 -165 242 -57 19 -162 20
-224 1z"/>
<path d="M2190 2199 c-62 -12 -145 -55 -174 -90 -60 -71 -58 -137 14 -428 27
-108 56 -250 65 -316 9 -66 27 -177 40 -248 28 -141 30 -196 14 -296 -17 -103
2 -205 47 -247 73 -69 194 -102 307 -84 153 24 287 132 369 296 37 76 43 98
46 164 l4 77 -72 138 c-94 180 -101 216 -99 483 2 221 -5 266 -46 332 -75 119
-296 234 -439 229 -17 -1 -51 -5 -76 -10z m204 -357 c108 -103 127 -273 40
-360 -26 -26 -39 -32 -56 -27 -68 21 -96 94 -105 267 -5 100 -3 121 11 143 23
35 56 27 110 -23z m89 -859 c22 -25 40 -106 33 -147 -4 -19 -16 -46 -28 -61
-18 -24 -26 -27 -61 -22 -22 3 -44 11 -49 19 -5 7 -7 51 -5 97 3 77 6 86 31
108 32 27 57 29 79 6z"/>
<path d="M1325 2154 c-240 -43 -375 -99 -485 -201 -115 -106 -173 -227 -174
-358 -1 -125 66 -208 167 -207 86 1 151 31 351 160 216 140 330 176 420 132
132 -63 217 -296 186 -506 -15 -98 -41 -162 -85 -204 -75 -72 -177 -44 -370
105 -182 140 -311 223 -372 241 -67 19 -132 10 -213 -31 -79 -40 -124 -94
-189 -229 -32 -67 -79 -154 -105 -194 -99 -153 -125 -255 -76 -308 69 -75 189
-87 335 -34 314 114 398 116 590 15 123 -66 175 -80 290 -79 110 0 192 19 254
59 57 35 148 142 183 213 43 87 48 185 19 377 -11 77 -25 207 -31 290 -18 238
-45 349 -127 524 -63 132 -139 196 -278 231 -90 23 -177 24 -290 4z"/>
</g>
</svg>
